<?xml version="1.0" standalone="no"?><!DOCTYPE svg PUBLIC "-//W3C//DTD SVG 1.1//EN" "http://www.w3.org/Graphics/SVG/1.1/DTD/svg11.dtd"><svg t="1718675346098" class="icon" viewBox="0 0 1024 1024" version="1.1" xmlns="http://www.w3.org/2000/svg" p-id="40137" xmlns:xlink="http://www.w3.org/1999/xlink" width="200" height="200"><path d="M828.952381 121.904762a73.142857 73.142857 0 0 1 73.142857 73.142857v633.904762a73.142857 73.142857 0 0 1-73.142857 73.142857H195.047619a73.142857 73.142857 0 0 1-73.142857-73.142857V195.047619a73.142857 73.142857 0 0 1 73.142857-73.142857h633.904762zM560.688762 231.619048h-72.996572L311.149714 731.428571H268.190476v73.142858h146.285714v-73.142858h-25.746285l51.663238-146.285714h167.570286l51.663238 146.285714H633.904762v73.142858h146.285714v-73.142858h-42.959238L560.688762 231.619048zM524.190476 347.91619L582.144 512h-115.907048l57.953524-164.08381z" p-id="40138"/></svg>