<?xml version="1.0" standalone="no"?><!DOCTYPE svg PUBLIC "-//W3C//DTD SVG 1.1//EN" "http://www.w3.org/Graphics/SVG/1.1/DTD/svg11.dtd"><svg t="1720404362571" class="icon" viewBox="0 0 1024 1024" version="1.1" xmlns="http://www.w3.org/2000/svg" p-id="1613" xmlns:xlink="http://www.w3.org/1999/xlink" width="200" height="200"><path d="M488.34 119.59c78.71-5.71 158.79 14.16 226.36 54.73 31.61 18.97 60.6 42.28 85.92 69.03 55.92 60.55 92.9 138.83 102.26 220.88-17.13-21.75-35.31-42.77-56.58-60.54-64.04-55.62-146.49-89.94-231.23-94.92-95.82-7.01-193.92 23.44-269.02 83.36 1.46-58.06 5.15-116.02 7.17-174.07 1.43-18.66 1.32-37.4 2.78-56.06 1.39-3.29-2.3-9.11 1.76-11.21 41.24-17.86 85.72-28.29 130.58-31.2m66.99 55.85c-29.19 1.28-58.67 7.28-84.07 22.26-17.67-14.01-41.43-17.12-63.3-16.73l0.11 0.91c19.37 1.44 39.99 5.94 54.79 19.32 0.01 0.4 0.04 1.21 0.06 1.61-29.66 16.88-53.23 44.79-63.9 77.25-0.47 2.56 1.56-0.58 1.67-1.35 8.67-23.72 26.75-42.94 47.98-56.07 7.01-4.31 14.13-9.3 22.08-11.5 2.68 6.18 5.46 12.71 5.14 19.58-13.4 4.26-26.29 10.18-37.64 18.55-19.59 14.58-33.72 35.55-43.19 57.83 0.39-0.1 1.18-0.29 1.58-0.38 6.85-13.79 17.78-24.85 27.57-36.52 7.31-6.71 14.74-13.35 22.82-19.15 8.89-4.6 18.99-7.04 29.03-6.02-1.68 10.08-4.89 19.75-8.89 29.11-1.01 2.19 1.89-0.35 1.87-1.12 3.65-8.96 8.41-17.43 11.22-26.73 2.85 0.75 4-3.14 1.03-3.57 0.62-3.18 1.42-6.32 1.98-9.51 8.18-3.04 17.06-3.84 25.73-4.18 13.52 1.9 28.82 1.82 39.78 11.11 1.09 3.33 0.88 9.8 6.02 8.76 2.41-3.55-0.21-7.73-1.45-11.21-7.37-15.41-19.37-28.55-34.53-36.58 15.82-0.84 31.64 1.04 47.19 3.89 5.33 1.56 11.47 1.37 16.01 4.97 5.5 1.1 3.49 11.01 9.98 9.03 1.17-3.98-2.58-5.89-5.13-8.02 18.09 4.72 34.67 14.64 50.22 24.92 5.52 4.17 9.99 12.15 17.92 11.1 0.52-3.02-1.01-5.85-3.22-7.8-28.12-23.79-63.37-39.18-100.07-42.91-16.69-1.31-33.35 0.1-49.8 2.78l0.32-0.8c32.76-9.17 67.36-17.83 101.41-10.74 17.37 3.31 34.22 10.1 49.01 19.84 3.45 2.55 3.04 6.53 2.66 10.36 0.65 2.92 4.05 3.56 6.62 3.28 0.03-1.78 0.1-5.32 0.14-7.09 4.24 2.25 7.58 5.81 11.58 8.45 10.71 10.32 21.63 20.55 30.21 32.79 18.03 19.05 37.19 37.04 58.32 52.65 16.09 11.36 32.35 22.92 50.8 30.21 6.6 2.14 14.45 5.92 20.93 1.81 1.6-5.57-5.84-7.84-9.91-5.86-16.87-1.8-32.75-9.47-45.71-20.29-0.1-0.41-0.31-1.21-0.42-1.62 9.11 3.62 19.56 8.75 29.14 3.98 8.32-4.68 5.97-19.33-3-21.91-1.66 0.57-3.57 0.75-4.85 2.05-0.31 2.99-0.12 6.37-2.32 8.72-20.74 1.58-41.65-5.97-57.47-19.3-0.14-0.37-0.44-1.09-0.59-1.46 9.38 4.4 19.91 7.91 30.31 5.04 6.07-1.81 11.73-7.43 10.9-14.18 1.63-7.25-6.25-12.57-12.73-10.83-4.9 3.12-2.86 10.22-7.47 13.66-17.98 1.81-37.19-6.3-46.84-21.91 6.42 2.29 13.19 5.49 20.15 3.31 5.72-1.1 12.81-5.28 11.78-12.03-3.48-2.15-7.63-0.79-11.24 0.34-17.51 3.73-33.26-7.7-44.62-19.57-33.54-36.74-84.5-54.92-133.7-52.53z" p-id="1614"/><path d="M277.06 198.25l0.87-0.42c-29.16 69.08-38.19 146.62-25.48 220.53 13.1 74.77 47.93 145.8 100.31 200.89 4.89 5.1 8.9 11.15 14.96 15.06 17.56 17.7 37.45 33.02 58.3 46.65 21.21 13.32 43.27 25.77 66.86 34.32 0.03 0.41 0.08 1.22 0.11 1.63-70.83 36.4-141.46 73.19-212.04 110.06-11.95-7.3-21.82-17.47-32.7-26.23-13.97-14.09-28.65-27.55-40.63-43.42-29.34-36.69-52.11-78.55-67.05-123.08-19.34-60.36-24.63-125.37-14.24-187.96 11.98-70.47 43.37-137.64 90.37-191.57 5.49-7.46 13.17-12.91 18.51-20.5 7.05-4.86 12.1-11.93 18.77-17.23 7.65-6.28 14.87-13.22 23.08-18.73m-54.81 88.03c-20.48 43.23-40.58 87.36-49.95 134.54 7.17 6.5 12.72 14.46 19.98 20.89 3.5 2.28 2.98 6.67 3.65 10.29 3.42 29.56 6.32 59.17 9.3 88.78 7.43 5.89 14.79 11.93 22.44 17.56 0.79 0.6 1.36 1.38 1.73 2.32 11 22.86 26.67 43.02 41.21 63.69 0.56 1.11 1.71 2.2 1.3 3.58-1.83 5.39-4.57 10.55-5.92 16.07 1.04 4.81 4.44 8.87 6.94 13.07 13.62 17.57 29.53 33.06 45.32 48.67 11.33 9.3 21.07 20.55 32.8 29.27 16.04-5.85 30.91-14.99 46.82-21.29-0.01-0.36-0.04-1.08-0.05-1.44-17.93-9.34-33.93-21.93-49.89-34.22-7.2-0.34-14.42 0.28-21.6-0.35-8.44-7.21-16.5-14.8-24.62-22.37-1.22-1.38-4.43-1.86-3.67-4.33 1.57-6.25 1.96-12.72 2.77-19.09 0.39-1.36-0.56-2.5-1.17-3.59-31.84-36.94-55.36-80.76-69.9-127.23-6.41-23.45-12.91-47.38-12.92-71.86-6.51-6.18-14.25-11.3-19.75-18.31-0.61-10.27 1.43-20.42 2.5-30.59 4.56-29.94 12.53-59.33 21.88-88.09 0.04 0.03 3.13-7.12 0.8-5.97m-60.21 174.74c0.5 10.62-1.53 21.16-0.93 31.78 10.05 4.23 19.96 8.79 29.96 13.15-1.52-9.86-2.41-19.85-3.24-29.81-8.63-4.98-16.99-10.44-25.79-15.12m-1.03 46.92c0.42 10.28 1.83 20.51 2.16 30.8 10.16 2.91 20.59 4.71 30.86 7.18-1.48-9.17-1.73-18.48-3.22-27.63-9.96-3.38-19.81-7.12-29.8-10.35m3.98 43.06c2.63 10.2 4.96 20.48 7.26 30.76 11.61 3.56 23.19 7.7 34.79 11.3-0.88-6.52-3.72-12.6-5.29-18.96-1.62-5.3-2.69-10.77-5.01-15.82-10.46-2.92-21.21-4.66-31.75-7.28m9.92 43.08c0.32 3.21 1.7 6.2 2.79 9.21 3.09 7.09 4.83 14.79 8.42 21.58 12.96 5.87 26.4 10.87 39.49 16.49 8.94 13.44 17.41 27.2 26.04 40.85-4.73 9.08-11.38 17.61-17.25 26.15-0.34 1.03-2.04 2.2-1.06 3.31a401.506 401.506 0 0 0 42.35 49.61c2.4 2.21 4.49 8.69 8.63 6.08 6.91-4.07 14.7-6.36 21.44-10.68 0.84-5.35-4.29-9.68-5.62-14.66 2.85-7.25 6.69-14.07 9.54-21.31 0.68-1.26 0.25-2.74-0.91-3.48-5.68-5.01-9.55-11.78-15.7-16.26-3.59 6.18-5.84 13.18-10.17 18.91-3.98-4.56-8.13-9.92-11.81-14.87 2.55-7.02 5.46-13.91 7.78-21.01-16.39-19.93-28.51-42.84-40.05-65.78-21.35-7.91-42.64-16.01-63.91-24.14zM507.34 201.56c3.43-0.01 7.95-2.05 10.7 1.4 10.54 6.85 19.8 16.03 26.01 27.04-19.27-4.42-39.72-5.91-59.04-1.05-5.39 1.28 0.05-8.68-2.15-10.89-0.87-3.76-2.9-7.2-3.79-10.89 8.34-5.13 18.97-3.68 28.27-5.61zM473.3 236.39c3.92-2.08 3.03 2.45 2.68 5.52-5.8-0.16-11.45 0.74-17.05 2.07 3.53-3.83 9.54-5.3 14.37-7.59z" p-id="1615"/><path d="M700.22 424.85c67.4 42.43 134.27 85.73 201.53 128.38 2.72 1.41 1.06 5.14 1.08 7.7-11.54 86-51.56 168.39-114.08 228.82-23.18 23.74-50.2 43.47-78.8 60.18-74.19 43.57-163.12 60.63-248.31 49.62-34.84-5.26-69.83-13.74-101.83-28.41 90.15-10.76 175.54-54.61 237.95-120.38 49.6-53.04 84.43-119.82 98.76-191.1 8.46-44.32 10.61-90.17 3.7-134.81m102.01 128.28c-2.84 5.02-7.63 9.31-13.89 8.37-3.15 0.08-6.71 2.8-5.06 6.23 8.02 11.23 5.97 26.33 4.74 39.25 0.39 5.3-2.9 14.06-9.74 11.83-6.44-6.67-12.58-13.8-17.31-21.79-1.99-3.12-3.74-8.56-0.25-11.3 1.89-1.84 3.61-5.53 1.09-7.53-1.89-2.67-6.32-0.12-8.6-1.06-7.51 7.94-10.16 18.97-16.12 27.93-3.41 5.33-7.31 11.09-7.01 17.69 5.52 1.98 12.05 2.18 16.73-1.91 2.29-4.71 1.16-10.42 4.18-14.84 0.55-1.38 2.69-4.37 4.31-2.3 8.34 9.05 12.89 21.27 14.75 33.29 0.34 14.75 13.7 24.72 26.69 28.5 3.63 2.3 7.98 1.41 11.96 1.22 5.2-1.88 6.98-7.66 7.28-12.66-1.43-5.22-7.54-6.4-12.01-7.9-3.57 0.44-3.07 8.39-8.65 4.46-4.11-0.89-7.18-4.09-10.2-6.79-0.1-2.96 1.24-6.1 0.05-8.91-0.72-2.72-2.65-4.95-3.21-7.7 4.46-0.87 12.17-1.63 12.24-7.22 13.48 3.48 26.02 11.08 34.56 22.11 2.5-10.08 1.91-21.74-4.97-29.95-2.55-0.59-3.97 2.68-4 4.79-7.62-4.32-15.27-8.61-22.78-13.1 2.68-8.61 9.7-16.3 9-25.84 2.53-6.71-7.59-8.82-3.75-15.66 1.83-2.02 4.25-4.27 3.73-7.29 0.02-1.95-2.26-2.39-3.76-1.92m35.04 19.15c-3.36 1.5-6.57 4.77-6.31 8.7-3.16 6.69 5.18 6.8 8.78 6.84 2.7-2.08 4.32-5.32 4.25-8.73-1.52-2.52-2.67-8.42-6.72-6.81m-105 104.01c-4.36 2.04-6.78 6.68-10.91 9.1-11.48 11.16-23.24 22.21-33.35 34.62-6.14 7.84-0.18 18.25 7.02 22.98 11.34 8.67 24.73 14.15 38.19 18.61 2.88 0.5 5.49 2.98 8.56 2.27 2.7-3.81 5.55-7.6 6.89-12.15 1.66-7.47-0.73-14.91-3.9-21.59-2.4 0.94-2.01 4.92-3.82 6.81-3.37 8.05-13.86 5.53-19.91 1.99-5.95-4.19-13.06-7.85-17.03-13.97 1.73-7.99 10.2-12.01 15.78-17.17 10.19-7.38 20.78-14.34 32.02-20.01l0.02-0.66c-6.39-3.71-12.79-8.68-19.56-10.83m28.06 25.05c-4.37 0.9-7.58 5.38-5.28 9.61 3.85 5.41 11.14 9.98 10.32 17.66 1.5 0.82 2.75 2.54 4.63 2.42 2.83 0.33 3.88-2.99 5.06-4.97 3.22-4.7 3.51-10.28 2.67-15.77-2.99-6.25-10.67-10.05-17.4-8.95m-77.05 76.74c-1.41 5.03-3.75 9.74-5.56 14.64-1.27 4.42-4.83 9.56-10.38 6.94-5.08-2.57-10.28-4.93-15.18-7.79-0.56-2.22-1.68-6.66-2.24-8.89-4.09-1.11-7.28 1.54-9.72 4.26-1.07 2.58 0.49 4.71 2.83 5.72 1.85 0.73 0.54 2.85 0.01 4.06-1.94 3.87-2.76 8.31-5.22 11.91-5.1-0.47-9.52-4.25-14.8-4.09 0.03-0.4 0.08-1.19 0.11-1.58 5.71-0.75 10.96-6.27 9.87-12.25 4.09-5.84-1.94-6.03-3.78-3.78-7.93 6.3-16.32 12.01-24.16 18.43 5.6 3.49 11.95 5.43 17.77 8.52-3.01 5.95-5.6 12.19-6.8 18.77 2.47 9.39 17.94 4.18 18.92-3.67-2.63-0.37-4.72-2.02-6.83-3.48-1.12-2.99 1.51-6.73 4.81-5.71 7.85 2.53 15.06 6.92 23.14 8.74 5.3 0.17 9.04-4.92 9.9-9.68-3.73-2.25-8.35-2.74-11.88-5.33-0.44-2.14 2.01-3.2 3.16-4.6 6.48-1.38 11.65 3.78 17.74 4.77 2.52-0.29 6.55 1.72 7.65-1.32 4.02-10.15 8.41-20.37 12.27-30.47-3.86-1.35-7.47-4.1-11.63-4.12M574.24 832.3c-5.67 4.62-7.7 12.04-10.47 18.53-4.58-4.06-7.6-11.56-13.76-14.8-2.13 1.05-6 1.14-2.67 5.66 2.73 6.52 7.72 11.63 11.74 17.31-0.9 1.9-4.9 3.87-1.88 5.89 5.47-0.18 11.01-2.1 15.61-5.06 2.77-8.08 1.45-17.15 2.74-25.54 0.26-0.76-0.23-2.83-1.31-1.99z" p-id="1616"/></svg>